# xmcd CD database file
#
# Track frame offsets:
#	150
#	15472
#	24188
#	41090
#	61100
#	70933
#	80519
#	94651
#	117907
#	126771
#	141764
#	153444
#	164526
#	173454
#	186557
#	200363
#	209498
#	221802
#
# Disc length: 3118 seconds
#
# Revision: 1
# Processed by: cddbd v1.5.1PL2 Copyright (c) Steve Scherf et al.
# Submitted via: CDex 1.51
#
DISCID=fa0c2c12
DTITLE=Trampská hospoda 2 - 18 Tramských a country písní
DYEAR=1900
DGENRE=Country
TTITLE0=01 Jo,tresne zraly
TTITLE1=02 Aljaska
TTITLE2=03 Zafukane
TTITLE3=04 Hej,hosi hej
TTITLE4=05 Ruze z papíru
TTITLE5=06 Slapej dal
TTITLE6=07 Cervena reka
TTITLE7=08 Pole s bavlnou
TTITLE8=09 Rodne udoli
TTITLE9=10 Zuzana
TTITLE10=11 Kovbojuv narek
TTITLE11=12 Vuz do Tennese
TTITLE12=13 Hucka
TTITLE13=14 Rosa na kolejich
TTITLE14=15 Jaro
TTITLE15=16 Sest bilych koni
TTITLE16=17 Na Ohor je cesta
TTITLE17=18 Cizinec
EXTD=
EXTT0=
EXTT1=
EXTT2=
EXTT3=
EXTT4=
EXTT5=
EXTT6=
EXTT7=
EXTT8=
EXTT9=
EXTT10=
EXTT11=
EXTT12=
EXTT13=
EXTT14=
EXTT15=
EXTT16=
EXTT17=
PLAYORDER=
